<?xml version="1.0" encoding="UTF-8"?>
<svg id="Layer_2" xmlns="http://www.w3.org/2000/svg" viewBox="0 0 653.24 225">
  <defs>
    <style>
      .cls-1 {
        fill: #100b23;
      }

      .cls-2 {
        fill: #3d3c38;
      }

      .cls-3 {
        fill: #8c9a9b;
      }

      .cls-4 {
        fill: #9da2a5;
      }

      .cls-5 {
        fill: #231f20;
      }

      .cls-6 {
        fill: #adaaa1;
      }

      .cls-7 {
        fill: #959b9a;
      }

      .cls-8 {
        fill: #8e8c86;
      }

      .cls-9 {
        fill: #5a8ea8;
      }

      .cls-10 {
        fill: #d9e0cd;
      }

      .cls-11 {
        fill: #8ba4a5;
      }
    </style>
  </defs>
  <g id="Layer_1-2" data-name="Layer_1">
    <g>
      <polygon class="cls-1" points="59.77 71.84 59.77 71.84 59.77 71.83 59.77 71.84"/>
      <g>
        <path class="cls-9" d="M562.97.17l-35.17,71.74h11.48l10.48-21.26h25.9l10.14,21.26h11.46L562.97.17ZM554.15,41.73l.08-.16,8.69-17.6,8.42,17.62.07.14h-17.26Z"/>
        <polygon class="cls-9" points="197.46 61.94 197.46 71.91 145.32 71.91 145.32 .17 197.28 .17 197.28 10.15 155.29 10.15 155.29 31.67 183.11 31.67 183.11 41.64 155.29 41.64 155.29 61.94 197.46 61.94"/>
        <polygon class="cls-9" points="416.26 61.94 416.26 71.91 364.12 71.91 364.12 .17 416.09 .17 416.09 10.15 374.1 10.15 374.1 31.67 401.92 31.67 401.92 41.64 374.1 41.64 374.1 61.94 416.26 61.94"/>
        <polyline class="cls-9" points=".19 .17 .19 71.91 10.17 71.91 10.17 .17"/>
        <polygon class="cls-9" points="469.49 61.94 469.49 71.91 428.37 71.91 423.3 71.91 423.3 .17 433.27 .17 433.27 61.94 469.49 61.94"/>
        <polygon class="cls-9" points="69.8 .17 69.8 71.91 59.77 71.91 59.73 71.86 26.76 21.26 26.76 71.91 16.78 71.91 16.78 .17 26.84 .17 59.83 51.96 59.83 .17 69.8 .17"/>
        <polygon class="cls-9" points="26.84 .1 26.83 .1 26.83 .09 26.84 .1"/>
        <path class="cls-9" d="M226.41,37.01c.96-.23,1.89-.52,2.79-.87,3.53-1.39,6.57-3.71,8.75-6.7,1.09-1.5,1.97-3.17,2.57-4.96.6-1.79.93-3.71.93-5.69,0-2.63-.58-5.16-1.62-7.43-.78-1.71-1.81-3.27-3.04-4.65-1.85-2.07-4.13-3.74-6.72-4.89-2.53-1.13-5.35-1.78-8.31-1.8-.05,0-.1-.01-.16-.01h-.02l-7.55.03v-.03h-9.97v71.91h9.97v-34.63l.22.28,26.3,34.17h12.5l-26.65-34.73ZM221.59,9.97h.01c1.42,0,2.76.28,3.96.75,1.81.71,3.31,1.89,4.33,3.3.51.7.91,1.46,1.17,2.26.27.8.41,1.63.41,2.51,0,1.18-.25,2.27-.72,3.3-.35.77-.83,1.5-1.42,2.16-.88.99-2.02,1.86-3.34,2.45-1.32.59-2.81.95-4.41.95h-7.55V10l7.55-.03Z"/>
        <path class="cls-9" d="M221.77.02h-.16.16Z"/>
        <polygon class="cls-9" points="214.27 37.56 214.06 37.56 214.06 37.29 214.27 37.56"/>
        <path class="cls-9" d="M626.59,37.1c.96-.23,1.89-.52,2.79-.87,3.53-1.39,6.57-3.71,8.75-6.7,1.09-1.5,1.97-3.17,2.57-4.96.6-1.79.93-3.71.93-5.69,0-2.63-.58-5.16-1.62-7.43-.78-1.71-1.81-3.27-3.04-4.65-1.85-2.07-4.13-3.74-6.72-4.89-2.53-1.13-5.35-1.78-8.31-1.8-.05,0-.1-.01-.16-.01h-.02l-7.55.03v-.03h-9.97v71.91h9.97v-34.63l.22.28,26.3,34.17h12.5l-26.65-34.73ZM621.78,10.06h.01c1.42,0,2.76.28,3.96.75,1.81.71,3.31,1.89,4.33,3.3.51.7.91,1.46,1.17,2.26.27.8.41,1.63.41,2.51,0,1.18-.25,2.27-.72,3.3-.35.77-.83,1.5-1.42,2.16-.88.99-2.02,1.86-3.34,2.45-1.32.59-2.81.95-4.41.95h-7.55V10.09l7.55-.03Z"/>
        <path class="cls-9" d="M621.95.11h-.16.16Z"/>
        <polygon class="cls-9" points="614.46 37.65 614.24 37.65 614.24 37.37 614.46 37.65"/>
        <path class="cls-9" d="M293.07,50.27c0,2.03-.29,4.01-.84,5.9-.55,1.89-1.35,3.67-2.37,5.31-2.04,3.29-4.95,6.01-8.45,7.85-2.34,1.23-4.94,2.06-7.71,2.41-.95.12-1.89.17-2.83.17-3.08,0-6.06-.62-8.79-1.75-2.73-1.13-5.21-2.78-7.29-4.86-1.38-1.39-2.59-2.97-3.55-4.72-1.29-2.33-2.14-4.97-2.42-7.77l10.45-1.04c.1,1.02.36,1.98.74,2.87.38.9.9,1.74,1.54,2.51,1.27,1.54,3.03,2.78,5.05,3.51,1.34.49,2.79.76,4.27.76.51,0,1.02-.03,1.54-.09,1.13-.14,2.19-.43,3.16-.83.98-.41,1.88-.94,2.68-1.56,1.61-1.26,2.85-2.91,3.57-4.75.48-1.23.74-2.54.74-3.91,0-.48-.03-.96-.1-1.45-.11-.83-.31-1.49-.56-2.05-.25-.57-.57-1.06-.98-1.54-.27-.32-.59-.63-.96-.94-.49-.41-1.07-.82-1.75-1.22-.91-.53-1.98-1.04-3.18-1.53-1.6-.65-3.43-1.25-5.39-1.86v-.05c-1.42-.45-2.87-.93-4.32-1.48-1.66-.63-3.31-1.36-4.91-2.27-1.07-.61-2.11-1.31-3.1-2.13-1.31-1.09-2.54-2.41-3.52-3.98-.56-.89-1.05-1.86-1.43-2.89-.44-1.18-.75-2.43-.92-3.73-.12-.89-.18-1.78-.18-2.66,0-1.91.28-3.77.79-5.54.52-1.77,1.27-3.45,2.23-4.99,1.92-3.08,4.66-5.64,7.96-7.37,1.1-.58,2.26-1.06,3.47-1.44,1.21-.38,2.47-.66,3.77-.82.89-.11,1.78-.16,2.66-.16,3.09,0,6.06.67,8.75,1.88,2.68,1.21,5.08,2.97,7.03,5.15,1.3,1.46,2.4,3.11,3.24,4.93l-9.52,4.43c-.6-1.29-1.49-2.44-2.6-3.38-1.11-.94-2.43-1.66-3.88-2.08-.96-.28-1.98-.43-3.03-.43-.45,0-.9.08-1.36.08h0c-1.01.17-1.95.38-2.82.74-.87.36-1.67.83-2.38,1.39-1.43,1.11-2.53,2.57-3.17,4.19-.43,1.08-.65,2.23-.65,3.43,0,.42.03.84.09,1.27.1.72.27,1.28.48,1.76.22.48.48.9.83,1.31.23.27.51.55.83.82.43.36.95.73,1.56,1.08.81.48,1.78.94,2.88,1.38,1.46.59,3.14,1.14,4.94,1.69l-.02.05c1.57.49,3.17,1.02,4.75,1.62,1.78.68,3.55,1.47,5.26,2.45,1.14.66,2.24,1.4,3.29,2.28,1.4,1.17,2.68,2.57,3.72,4.22.59.94,1.1,1.97,1.51,3.06.46,1.25.79,2.57.98,3.95.13.96.19,1.91.19,2.85Z"/>
        <polygon class="cls-9" points="139.06 .17 139.06 10.15 113.34 10.15 113.34 71.91 103.36 71.91 103.36 10.15 76.24 10.15 76.24 .17 139.06 .17"/>
        <polygon class="cls-9" points="358.43 .17 358.43 10.15 332.71 10.15 332.71 71.91 322.74 71.91 322.74 10.15 295.62 10.15 295.62 .17 358.43 .17"/>
        <polygon class="cls-9" points="521.76 61.94 521.76 71.91 480.64 71.91 475.57 71.91 475.57 .17 485.54 .17 485.54 61.94 521.76 61.94"/>
      </g>
      <g>
        <path class="cls-11" d="M295.84,122.82c0,.11,0,.22,0,.33h-.01c0-.11,0-.22,0-.33Z"/>
        <path class="cls-11" d="M333.24,86.23h0c-.17,0-.31,0-.47,0,.16,0,.29,0,.47,0Z"/>
        <path class="cls-11" d="M295.83,122.38h.01c0,.17,0,.31,0,.46,0-.15,0-.28,0-.46Z"/>
        <path class="cls-11" d="M330.97,158h0s-.06,0-.06,0c.02,0,.04,0,.06,0Z"/>
        <path class="cls-11" d="M330.91,158h-.16.16Z"/>
        <path class="cls-11" d="M354.42,149.15c-3.15,2.76-6.8,4.97-10.8,6.49-3.93,1.5-8.21,2.33-12.66,2.36-.02,0-.04,0-.06,0-.05,0-.1,0-.16,0-3.56-.02-7.01-.58-10.25-1.61-3.31-1.05-6.41-2.58-9.21-4.5-5.61-3.85-10.04-9.29-12.7-15.69-1.67-4.03-2.66-8.44-2.76-13.05,0-.11-.03-.22-.03-.33h0c0-.17.02-.32.03-.47.08-3.54.67-6.96,1.69-10.2,1.1-3.48,2.71-6.73,4.73-9.68,4.05-5.89,9.76-10.55,16.49-13.35,4.21-1.75,8.81-2.79,13.62-2.91.15,0,.31-.04.46-.04h.02c.16,0,.31.04.47.05,3.55.09,6.99.74,10.21,1.84,3.51,1.19,6.76,2.93,9.67,5.1l-5.97,7.99c-2.09-1.56-4.41-2.79-6.9-3.64-2.36-.8-4.86-1.25-7.49-1.3-2.7.04-5.29.47-7.73,1.21-2.58.79-5.01,1.94-7.2,3.4-4.39,2.92-7.87,7.04-9.94,11.86-1.33,3.09-2.08,6.45-2.14,10.02.03,2.55.43,5,1.13,7.31.74,2.42,1.81,4.68,3.18,6.73,2.72,4.1,6.58,7.35,11.08,9.28,2.97,1.28,6.22,1.99,9.66,2,3.27-.01,6.36-.62,9.22-1.7,2.88-1.1,5.51-2.69,7.78-4.68l6.57,7.51Z"/>
        <path class="cls-11" d="M332.83,86.23c-.15,0-.29,0-.46,0h0c.17-.01.31-.01.46,0Z"/>
        <polygon class="cls-11" points="604.89 148.03 604.89 158 552.75 158 552.75 86.26 604.71 86.26 604.71 96.24 562.72 96.24 562.72 117.76 590.54 117.76 590.54 127.73 562.72 127.73 562.72 148.03 604.89 148.03"/>
        <path class="cls-11" d="M486.65,123.15h-.01c0-.11,0-.22,0-.33,0,.11,0,.22,0,.33Z"/>
        <path class="cls-11" d="M486.64,122.38h0c0,.17,0,.3,0,.45,0-.15,0-.27,0-.45Z"/>
        <path class="cls-11" d="M521.77,158h0s-.06,0-.06,0c.02,0,.04,0,.06,0Z"/>
        <path class="cls-11" d="M521.55,158c.05,0,.11,0,.16,0h-.16Z"/>
        <polygon class="cls-11" points="545.21 149.28 545.21 149.28 545.21 149.28 545.21 149.28"/>
        <path class="cls-11" d="M545.27,122.73v26.55l-.08.04c-3.09,2.67-6.73,4.83-10.71,6.33-3.94,1.48-8.24,2.32-12.7,2.35-.02,0-.05,0-.07,0-.05,0-.11,0-.16,0-3.56-.02-7.01-.58-10.26-1.61-3.31-1.05-6.41-2.58-9.21-4.5-5.61-3.85-10.04-9.29-12.7-15.69-1.67-4.03-2.63-8.44-2.73-13.05,0-.11,0-.22,0-.33v-.02c0-.15,0-.3,0-.45.08-3.54.65-6.96,1.68-10.2,1.1-3.48,2.7-6.73,4.73-9.68,4.05-5.89,9.76-10.55,16.48-13.35,4.43-1.84,9.3-2.9,14.39-2.92.04,0,.07-.03.1-.03h.07c3.71,0,7.29.71,10.63,1.89,3.39,1.2,6.54,2.97,9.33,5.15l-6.14,7.87c-1.98-1.54-4.18-2.76-6.53-3.59-2.33-.82-4.8-1.27-7.39-1.28-2.84,0-5.56.43-8.12,1.22-2.59.79-5.01,1.94-7.2,3.4-4.39,2.92-7.87,7.04-9.94,11.86-1.33,3.09-2.08,6.46-2.14,10.02.03,2.55.43,5,1.13,7.31.74,2.42,1.82,4.68,3.18,6.73,2.72,4.1,6.58,7.35,11.08,9.28,2.97,1.28,6.22,1.99,9.66,2,3.26-.01,6.44-.63,9.32-1.71,1.51-.57,2.91-1.27,4.31-2.07v-11.54h-7.52v-9.97h17.5Z"/>
        <path class="cls-11" d="M524.03,86.23s-.07,0-.1,0h0s.1,0,.1,0Z"/>
        <polygon class="cls-11" points="545.21 149.28 545.21 149.32 545.16 149.32 545.21 149.28"/>
        <polygon class="cls-11" points="371.65 125.72 371.65 126.93 371.05 126.33 371.65 125.72"/>
        <polygon class="cls-11" points="416.82 158 402.69 158 371.65 126.93 371.65 125.72 371.05 126.33 371.65 126.93 371.65 158 361.68 158 361.68 86.26 371.65 86.26 371.65 112.22 397.34 86.44 410.92 86.44 378.15 119.3 416.82 158"/>
        <polygon class="cls-11" points="371.65 125.72 371.65 126.93 371.05 126.33 371.65 125.72"/>
        <path class="cls-11" d="M248.78,97.65c-1.43-3.37-3.8-6.22-6.79-8.24-1.49-1.01-3.15-1.81-4.91-2.36-1.71-.53-3.53-.77-5.41-.79-.04,0-.1,0-.14,0h-16.38v71.74h9.97v-34.29h6.37s.06,0,.08,0c2.55-.01,4.99-.53,7.22-1.48,3.37-1.43,6.22-3.8,8.24-6.79,1.01-1.5,1.81-3.15,2.36-4.91.55-1.77.84-3.64.84-5.57,0-2.58-.52-5.05-1.48-7.3ZM239.59,108.37c-.66,1.57-1.78,2.92-3.18,3.87-.7.47-1.47.85-2.29,1.1-.82.26-1.69.39-2.61.39h-6.37v-17.55l6.37.05h0c1.22,0,2.36.22,3.41.66,1.57.66,2.92,1.77,3.87,3.17.47.7.85,1.46,1.1,2.28.26.82.39,1.69.39,2.61,0,1.23-.25,2.36-.69,3.41Z"/>
        <path class="cls-11" d="M231.59,158h0s-.08,0-.08,0c.03,0,.06,0,.08,0Z"/>
        <path class="cls-11" d="M653.24,136.36c0,2.03-.29,4.01-.84,5.9-.55,1.89-1.35,3.67-2.37,5.31-2.04,3.29-4.95,6.01-8.45,7.85-2.34,1.23-4.94,2.06-7.71,2.41-.95.12-1.89.17-2.83.17-3.08,0-6.06-.62-8.79-1.75-2.73-1.13-5.21-2.78-7.29-4.86-1.38-1.39-2.59-2.97-3.55-4.72-1.29-2.33-2.14-4.97-2.42-7.77l10.45-1.04c.1,1.02.36,1.98.74,2.87.38.9.9,1.74,1.54,2.51,1.27,1.54,3.03,2.78,5.05,3.51,1.34.49,2.79.76,4.27.76.51,0,1.02-.03,1.54-.09,1.13-.14,2.19-.43,3.16-.83.98-.41,1.88-.94,2.68-1.56,1.61-1.26,2.85-2.91,3.57-4.75.48-1.23.74-2.54.74-3.91,0-.48-.03-.96-.1-1.45-.11-.83-.31-1.49-.56-2.05s-.57-1.06-.98-1.54c-.27-.32-.59-.63-.96-.94-.49-.41-1.07-.82-1.75-1.22-.91-.53-1.98-1.04-3.18-1.53-1.6-.65-3.43-1.25-5.39-1.86v-.05c-1.42-.45-2.87-.93-4.32-1.48-1.66-.63-3.31-1.36-4.91-2.27-1.07-.61-2.11-1.31-3.1-2.13-1.31-1.09-2.54-2.41-3.52-3.98-.56-.89-1.05-1.86-1.43-2.89-.44-1.18-.75-2.43-.92-3.73-.12-.89-.18-1.78-.18-2.66,0-1.91.28-3.77.79-5.54s1.27-3.45,2.23-4.99c1.92-3.08,4.66-5.64,7.96-7.37,1.1-.58,2.26-1.06,3.47-1.44,1.21-.38,2.47-.66,3.77-.82.89-.11,1.78-.16,2.66-.16,3.09,0,6.06.67,8.75,1.88,2.68,1.21,5.08,2.97,7.03,5.15,1.3,1.46,2.4,3.11,3.24,4.93l-9.52,4.43c-.6-1.29-1.49-2.44-2.6-3.38-1.11-.94-2.43-1.66-3.88-2.08-.96-.28-1.98-.43-3.03-.43-.45,0-.9.08-1.36.08h0c-1.01.17-1.95.38-2.82.74-.87.36-1.67.83-2.38,1.39-1.43,1.11-2.53,2.57-3.17,4.19-.43,1.08-.65,2.23-.65,3.43,0,.42.03.84.09,1.27.1.72.27,1.28.48,1.76.22.48.48.9.83,1.31.23.27.51.55.83.82.43.36.95.73,1.56,1.08.81.48,1.78.94,2.88,1.38,1.46.59,3.14,1.14,4.94,1.69l-.02.05c1.57.49,3.17,1.02,4.75,1.62,1.78.68,3.55,1.47,5.26,2.45,1.14.66,2.24,1.4,3.29,2.28,1.4,1.17,2.68,2.57,3.72,4.22.59.94,1.1,1.97,1.51,3.06.46,1.25.79,2.57.98,3.95.13.96.19,1.91.19,2.85Z"/>
        <path class="cls-11" d="M457.92,86.26l-35.17,71.74h11.48l10.48-21.26h25.9l10.14,21.26h11.46l-34.29-71.74ZM449.1,127.81l.08-.16,8.69-17.6,8.42,17.62.07.14h-17.26Z"/>
        <path class="cls-11" d="M267.76,86.26l-35.17,71.74h11.48l10.48-21.26h25.9l10.14,21.26h11.46l-34.29-71.74ZM258.95,127.81l.08-.16,8.69-17.6,8.42,17.62.07.14h-17.26Z"/>
      </g>
      <g>
        <line class="cls-5" x1="177.67" y1="87.32" x2="177.67" y2="160.78"/>
        <path class="cls-5" d="M176.04,87.32v73.46c0,.73.72,1.32,1.62,1.32.9,0,1.63-.59,1.63-1.32v-73.46c0-.73-.72-1.32-1.62-1.32-.9,0-1.63.59-1.63,1.32"/>
        <line class="cls-2" x1="141.92" y1="87.76" x2="141.92" y2="190.25"/>
        <path class="cls-2" d="M140.83,87.76v102.49c0,.49.49.88,1.09.88.6,0,1.08-.39,1.08-.88v-102.49c0-.49-.49-.88-1.09-.88-.6,0-1.08.39-1.08.88"/>
        <line class="cls-10" x1="128.1" y1="87.98" x2="128.11" y2="201.91"/>
        <path class="cls-10" d="M127.29,87.98v113.93c0,.36.37.66.81.66.45,0,.81-.3.81-.66v-113.93c0-.36-.37-.66-.81-.66-.45,0-.81.3-.81.66"/>
        <path class="cls-6" d="M158.71,87.98v84.02c0,.61.61,1.1,1.35,1.1s1.35-.49,1.35-1.1v-84.02c0-.61-.61-1.1-1.35-1.1s-1.35.49-1.35,1.1"/>
        <path class="cls-5" d="M0,87.76v73.02c0,.73.73,1.32,1.62,1.32s1.62-.59,1.62-1.32v-73.02c0-.73-.73-1.32-1.62-1.32s-1.62.59-1.62,1.32"/>
        <path class="cls-3" d="M61.21,87.76v122.72c0,.24.24.44.54.44s.54-.2.54-.44v-122.72c0-.24-.24-.44-.54-.44s-.54.2-.54.44"/>
        <path class="cls-4" d="M89.38,87.98v136.8c0,.12.12.22.27.22s.27-.1.27-.22V87.98c0-.12-.12-.22-.27-.22s-.27.1-.27.22"/>
        <line class="cls-3" x1="117.54" y1="87.76" x2="117.54" y2="210.48"/>
        <path class="cls-3" d="M117,87.76v122.72c0,.24.24.44.54.44.3,0,.54-.2.54-.44v-122.72c0-.24-.24-.44-.54-.44-.3,0-.54.2-.54.44"/>
        <line class="cls-10" x1="50.65" y1="87.98" x2="51.19" y2="201.91"/>
        <path class="cls-10" d="M49.83,87.98l.54,113.93c0,.36.37.66.82.66.45,0,.81-.3.81-.66l-.54-113.93c0-.36-.37-.66-.82-.66s-.81.3-.81.66"/>
        <line class="cls-2" x1="37.38" y1="87.76" x2="37.38" y2="190.25"/>
        <path class="cls-2" d="M36.29,87.76v102.49c0,.49.49.88,1.09.88.6,0,1.08-.39,1.08-.88v-102.49c0-.49-.49-.88-1.09-.88-.6,0-1.08.39-1.08.88"/>
        <line class="cls-6" x1="19.23" y1="87.98" x2="19.23" y2="175.07"/>
        <path class="cls-6" d="M17.88,87.98v87.09c0,.61.61,1.1,1.36,1.1.75,0,1.35-.49,1.35-1.1v-87.09c0-.61-.61-1.1-1.36-1.1-.75,0-1.35.49-1.35,1.1"/>
        <path class="cls-8" d="M189.04,87.54v61.58c0,.85.85,1.54,1.9,1.54s1.9-.69,1.9-1.54v-61.58c0-.85-.85-1.54-1.9-1.54s-1.9.69-1.9,1.54"/>
        <path class="cls-7" d="M203.12,87.98v51.03c0,1.09,1.09,1.98,2.44,1.98s2.44-.89,2.44-1.98v-51.03c0-1.09-1.09-1.98-2.44-1.98s-2.44.89-2.44,1.98"/>
      </g>
    </g>
  </g>
</svg>