<?xml version="1.0" encoding="UTF-8"?>
<svg id="Layer_2" xmlns="http://www.w3.org/2000/svg" viewBox="0 0 206.45 165.49">
  <defs>
    <style>
      .cls-1 {
        fill: #190808;
      }

      .cls-2 {
        fill: #a24035;
      }

      .cls-3 {
        fill: #fff;
      }

      .cls-4 {
        fill: #60632a;
      }

      .cls-5 {
        fill: #a79f43;
      }

      .cls-6 {
        fill: #4e491d;
      }
    </style>
  </defs>
  <g id="L1">
    <path class="cls-5" d="M33.33,121.99C4.71,95.26-.04,64.11,17.56,51.53c.78-.76,2.02-.74,2.69.11,4.51,5.82,6.94,23.11,7.18,23.83l.57.7c.26-3.88-.12-7.8-1.21-11.77l-4.57-12.88-.19-.94c2.07-.87,4.47-.39,6.02,1.23,5.96,6.2,12.51,16.36,13.83,27.39.15,1.26.08,2.55-.22,3.78h0c-9.08,29.14-8.32,39.01-8.32,39.01Z"/>
    <path class="cls-4" d="M18.58,30.36c7.51-6.31,12.77-12.25,14.98-23.22.07-.35.56-.42.71-.09,3.97,8.58,3.81,16.23-.39,24.11-.08.16-.18.32-.27.49-1.51,2.62-2.53,3.74-5.98,6.7-5.78,4.95-12.62,7.85-17.07,11.98-3.35,3.03-6.18,7.17-8.07,12.4-.24.67-1.22.6-1.35-.11C-3.85,34.75,7.83,17.11,31.91,5.6c.35-.17.75.15.67.53-2.29,10.93-7,15.91-14.29,24.37"/>
    <path class="cls-6" d="M43.7,1.66c10.94,1.15,21.56,2.61,28.95,7.16.8.63.58,1.09-.37.85,0,0-26.2-7.55-35.55-4.77l12.44,14.32c5.57,5.93,13,9.94,21.08,10.84.5.06,5.24.47,5.75.48,20.67.24,23.08-.65,33.26,5.88C102.03,7.61,80.57-4.63,43.28,1.58"/>
    <path class="cls-5" d="M166.22.32c-28.48-2.15-50.27,9.19-56.95,22.79-.73,1.66-.18,2.09,2.21.79l13.31-8.48c.88-.58,1.41-.8.8.19-4.2,2.83-8.7,6.25-12.18,9.67-.87.61-.9,1.8-.01,2.43,5.38,4.3,16.78,3.87,25.47.6,2.92-1.47,5.45-2.95,7.53-4.46,3.31-2.5,4.13-3,6.66-10.04,2.15-5.99,7.58-8.61,13.18-13.48Z"/>
    <path class="cls-6" d="M169.84.9c7.61,6.85,16.32,17.42,20.28,26.39.09.21-.19.37-.33.18-6.6-9.17-14.19-17.93-21.38-22.99-2.6,6.8-4.52,17.83-1.75,26.29,2.97,9.07,6.42,14.35,14.38,19.62,10.44,6.92,19.68,26.21,17.01,35.5,17.96-36.48,6.49-75.63-28.21-84.99"/>
    <path class="cls-5" d="M185.17,77.01c3.61,6.53,5.47,13.84,5.84,21.8.03.67.94.84,1.23.24,7.63-16.03,4.46-28.98-9.4-39.45-6.38-4.82-11.95-10.51-17.15-17.31,3.74,8.46,3.8,17.75,2.7,25.07-1.37,9.06.58,18.41,5.96,25.82,3.06,4.22,6.86,7.49,11.36,9.85,1.01.53,2.22-.18,2.28-1.32.42-7.97-.78-16.15-3.3-24.5-.09-.29.33-.46.47-.19Z"/>
    <path class="cls-6" d="M137.42,118.56c8.26.35,16.03,1.29,23.04,3.13,1.45.38,2.93.65,4.43.63,7.27-.12,12.87-3.61,18.99-11.08.64-.78.02-2.01-.96-2.21-3.04-.62-10.04-.41-19.96.41,8.09-1.56,13.72-2.81,20.16-1.44,1.05-.08,1.64-1.33.94-2.12,0,0-.01-.02-.02-.02-9.46-9.82-19.53-11.99-30.54-3.5-1.22.94-2.29,2.08-3.19,3.33-4.37,6.08-8.72,9.8-13.05,12.28-.28.16-.18.59.15.6Z"/>
    <path class="cls-5" d="M139.33,139.85c-.98.84-1.35.42-.85-.46,5.62-5.68,11.99-10.54,21.22-12.12.99-.17.78-1.08-.03-1.6-.29-.19-1.52-.84-2.4-.84-14.57,0-28.36,2.24-29.49,17.05-.75,9.79-6.59,17.67-11.19,23.61,11.99-3.69,23.15-8.98,32.8-17.2.85-.72,1.74-1.4,2.62-2.08,3.69-2.84,7.26-9.94,11.01-17.35.25-3.05-6.28-.62-17.97,5.96-1.6.9-3.1,2-4.37,3.32-.55.57-1.05,1.17-1.45,1.79"/>
  </g>
  <g id="L2">
    <path class="cls-1" d="M87.3,122.41c-1.37,4.02-3.48,7.81-6.44,11.35-.21.25-.63.08-.6-.25,2.59-12.37,4.22-23.69,3.85-32.86-.09-2.27-1.21-4.39-3.08-5.67-7.03-4.8-15.31-8.75-23.99-12.42-.41-.17-.33-.77.11-.83,12.85-.84,23.75,1.15,30.08-1.91,2.14-1.04,3.81-2.21,5.46-2.82,1.23-.46,1.84-1.83,1.35-3.05-.48-3.4-2.27-7.37-4.72-11.61-20.24-6.99-37.02-15.57-56.34-19.52-.72-.18-.79-1.17-.1-1.45,9.01-3.63,20.36-4.62,35.46-1.35,5.1,1.54,12.42,1.88,20.73,1.69,5.92-.61,12.97.2,20.55,1.67,5.78,1.34,11.07,5.83,15.43,11.4.83,1.06,2.39,1.13,3.31.15,3.87-4.15,8.4-5.42,16.32-2.6.25.09.53.12.79.07l6.95-1.25-1.7,4.12c-.1.23-.18.48-.23.72l-1.19,4.98c-.09.37-.25.71-.49,1.01-4.33,3.05-2.2,7.06-9.56,10.76-1.64,1.11-2.2,3.06-1.65,5.88,3.11,11.08,2.15,20.6-2.71,28.6-6.62,13.08-14,17.59-21.57,31.78-6.08,9.49-13.29,16.2-21.13,21.34-1.06.7-2.37-.44-1.81-1.58,3.04-6.13,6.89-12.85,8.68-20.99,2.53-11.47,6.81-22.68,11.32-34.54.21-.55.08-1.18-.34-1.59l-2.27-3.25c-1-.99-2.8-1.56-3.75-.53-1.84,1.99-4.82,5.65-9.75,8.91-3.02,3.79-5.31,9.25-6.62,14.77-.07.3-.19.59-.34.86Z"/>
  </g>
  <g id="L3">
    <path class="cls-3" d="M144.12,61.33c.35.26.67.51.95.78-.72.47-1.5.89-2.31,1.27-.22-.13-.38-.29-.47-.5.61-.57,1.22-1.09,1.83-1.55Z"/>
    <path class="cls-2" d="M147.71,58.05l.42.66c-1.75,6.44-5.03,11.16-10.14,13.79-.34.17-.74-.09-.73-.47.04-1.93.29-3.74,1.51-4.73,3.45-2.8,2.51-2.36,2.91-2.43,2.39-.39,4.34-.89,4.32-4.71,0-.21.08-.43.23-.58l1.49-1.53Z"/>
  </g>
</svg>